# xmcd
# 
# Track frame offsets:
#     150
#     18941
#     39361
#     54485
#     72408
#     85091
#     86726
#     100317
#     111919
#     133696
#     147288
#     160851
# 
# Disc length: 2384
# 
# Revision: 0
# Processed by: cddbd v1.5.2PL0 Copyright (c) Steve Scherf et al.
# Submitted via: fre:ac v1.0.31
# 
DISCID=9d094e0c
DTITLE=Hosty Duo - Yay
DYEAR=2015
DGENRE=Blues
TTITLE0=The Hard Way
TTITLE1=Ready To Get On
TTITLE2=Al Green
TTITLE3=Little Bit
TTITLE4=Place To Rock And Roll
TTITLE5=Puppet Show
TTITLE6=Rosalita
TTITLE7=El Toro
TTITLE8=Only One Beer
TTITLE9=Rosalita (Spanish Version)
TTITLE10=No Lovin' No More
TTITLE11=The Dishwasher
EXTD=
EXTT0=
EXTT1=
EXTT2=
EXTT3=
EXTT4=
EXTT5=
EXTT6=
EXTT7=
EXTT8=
EXTT9=
EXTT10=
EXTT11=
PLAYORDER=
